Coordinates
version=1
nRows=11
nColumns=24
inDegrees=yes
Units are S.I. units (second, meters, Newtons, ...)
Angles are in degrees.
endheader
time	pelvis_tilt	pelvis_list	pelvis_rotation	pelvis_tx	pelvis_ty	pelvis_tz	hip_flexion_r	hip_adduction_r	hip_rotation_r	knee_angle_r	ankle_angle_r	subtalar_angle_r	mtp_angle_r	hip_flexion_l	hip_adduction_l	hip_rotation_l	knee_angle_l	ankle_angle_l	subtalar_angle_l	mtp_angle_l	lumbar_extension	lumbar_bending	lumbar_rotation	
2.48000000000000	-10.59106270000000	0.83043418000000	1.82636873000000	-0.12047707000000	0.94752857000000	-0.00175803000000	19.88120877000000	-0.69530861000000	-2.74503244000000	-21.02840925000000	19.83543738000000	0.00000065000000	0.00000000000000	45.84929061000000	-4.53885042000000	-9.47615833000000	-56.88399716000000	12.92419563000000	-0.00000000000000	0.00000000000000	-13.26986661000000	-3.73620375000000	3.94905371000000	
2.49000000000000	-10.60232314000000	0.99496793000000	1.50254392000000	-0.12106410000000	0.94694983000000	-0.00141980000000	18.29698345000000	-0.69618767000000	-2.39705052000000	-19.41792566000000	19.13074916000000	0.00000064000000	0.00000000000000	46.81973014000000	-4.79246434000000	-10.40618265000000	-54.52105515000000	13.49385798000000	-0.00000002000000	0.00000000000000	-13.24990320000000	-4.06058435000000	4.31265432000000	
2.50000000000000	-10.66043863000000	0.92253680000000	1.42610960000000	-0.12233725000000	0.94567409000000	-0.00170540000000	17.03307747000000	-0.59074937000000	-2.37777361000000	-18.31653743000000	18.97474270000000	0.00000059000000	0.00000000000000	47.92395908000000	-4.95443177000000	-10.76831365000000	-52.07849358000000	14.09160571000000	-0.00000002000000	0.00000000000000	-13.25822826000000	-4.04580937000000	4.48028005000000	
2.51000000000000	-10.69569991000000	0.90908689000000	1.28558857000000	-0.12335042000000	0.94394945000000	-0.00203636000000	15.67513707000000	-0.52693818000000	-2.26461782000000	-17.09346373000000	18.51406842000000	0.00000059000000	0.00000000000000	48.84859157000000	-5.04055955000000	-11.03407847000000	-49.40978181000000	14.39510360000000	-0.00000010000000	0.00000000000000	-13.26616155000000	-4.09315598000000	4.67551503000000	
2.52000000000000	-10.68810879000000	0.89809538000000	1.17306885000000	-0.12425302000000	0.94192129000000	-0.00246728000000	14.04865906000000	-0.52516663000000	-2.43632712000000	-15.42661021000000	17.36066588000000	0.00000066000000	0.00000000000000	49.59494499000000	-5.07482765000000	-11.13328878000000	-46.63925542000000	14.96918200000000	-0.00000008000000	0.00000000000000	-13.30722624000000	-4.14084481000000	4.82985044000000	
2.53000000000000	-10.62572726000000	0.81177181000000	1.08744527000000	-0.12480615000000	0.93966286000000	-0.00307211000000	12.72854997000000	-0.45288123000000	-2.47024713000000	-14.58526946000000	17.41552547000000	0.00000056000000	0.00000000000000	50.18524862000000	-5.12475573000000	-10.95325233000000	-43.75384200000000	15.30533347000000	-0.00000007000000	0.00000000000000	-13.38155971000000	-4.07979529000000	4.94651518000000	
2.54000000000000	-10.42854076000000	0.51039236000000	1.10934450000000	-0.12475020000000	0.93742038000000	-0.00388408000000	10.94666229000000	-0.17129463000000	-2.70823659000000	-13.22666760000000	17.24850584000000	0.00000055000000	0.00000000000000	50.58098846000000	-5.26532688000000	-10.54424936000000	-40.94359997000000	16.16725610000000	-0.00000003000000	0.00000000000000	-13.53608913000000	-3.76291234000000	5.00221947000000	
2.55000000000000	-10.19833153000000	0.18562478000000	1.13617725000000	-0.12448977000000	0.93478539000000	-0.00482806000000	9.13232597000000	0.12736111000000	-2.97225714000000	-11.91249547000000	17.13211790000000	0.00000065000000	0.00000000000000	50.89832715000000	-5.41662557000000	-9.90326693000000	-38.27393714000000	17.03379454000000	-0.00000002000000	0.00000000000000	-13.67116566000000	-3.36885840000000	4.94707413000000	
2.56000000000000	-10.17735432000000	0.29955756000000	0.87299781000000	-0.12522686000000	0.93136366000000	-0.00530835000000	8.06180015000000	-0.05841255000000	-3.06466690000000	-11.41748991000000	16.88950326000000	0.00000056000000	0.00000000000000	51.24513800000000	-5.40326926000000	-9.55061871000000	-35.55743656000000	17.99565918000000	-0.00000004000000	0.00000000000000	-13.71854728000000	-3.62301881000000	5.21429556000000	
2.57000000000000	-10.01754748000000	0.15818555000000	0.75019263000000	-0.12513131000000	0.92795171000000	-0.00605034000000	6.50630124000000	0.05159674000000	-3.15601652000000	-10.40938881000000	16.67404228000000	0.00000055000000	0.00000000000000	51.45904079000000	-5.53661660000000	-8.89018866000000	-33.12406717000000	18.81838858000000	0.00000004000000	0.00000000000000	-13.81444887000000	-3.53233205000000	5.31675767000000	
2.58000000000000	-9.85723428000000	0.06339789000000	0.63449995000000	-0.12474751000000	0.92452420000000	-0.00673495000000	4.92294938000000	0.11601722000000	-3.18752319000000	-9.39258317000000	16.65934139000000	0.00000054000000	0.00000000000000	51.59203668000000	-5.65261923000000	-8.35101009000000	-30.96462170000000	19.73705280000000	-0.00000000000000	0.00000000000000	-13.89059835000000	-3.55553770000000	5.41616682000000	
